<?xml version="1.0" encoding="utf-8"?>
<!-- Generator: Adobe Illustrator 13.0.1, SVG Export Plug-In . SVG Version: 6.00 Build 14948)  -->
<!DOCTYPE svg PUBLIC "-//W3C//DTD SVG 1.1//EN" "http://www.w3.org/Graphics/SVG/1.1/DTD/svg11.dtd">
<svg version="1.1" id="Слой_1" xmlns="http://www.w3.org/2000/svg" xmlns:xlink="http://www.w3.org/1999/xlink" x="0px" y="0px"
	 width="24px" height="24px" viewBox="-349.5 368.775 24 24" enable-background="new -349.5 368.775 24 24" xml:space="preserve">
<g>
	<path opacity="0.2" fill="#000030" enable-background="new    " d="M-325.708,382.636l-0.003-0.775l-0.458-0.357
		c0,0-0.435-0.348-0.589-0.471c-0.018-0.235-0.088-1.126-0.088-1.126l-0.038-0.552l-0.843-0.652l-1.815-1.352l-0.263,0.089
		c-0.213-0.16-0.46-0.346-0.743-0.559l-0.021-0.29l-0.842-0.652l-1.816-1.351l-0.259,0.087c-0.218-0.163-0.439-0.329-0.66-0.495
		l-0.02-0.299l-0.843-0.651l-1.816-1.352l-0.263,0.089c-0.708-0.536-1.201-0.91-1.28-0.976c-0.189-0.16-0.472-0.191-0.691-0.075
		l0.008-0.004c-0.196,0.099-2.069,0.862-3.574,1.476c-2.357,0.961-3.062,1.251-3.189,1.321c-0.193,0.106-0.313,0.309-0.313,0.529
		l0.006,2.391l-0.681,0.33c0,0,0.053,2.919,0.058,3.188c-0.167,0.081-0.995,0.488-0.995,0.488l-0.051,0.869l1.813,1.775l1.567-0.775
		c0,0,0.093-0.174,0.103-0.191c0.014-0.023,0.222-0.356,0.222-0.356s0.111-0.701,0.213-1.351l0.059,0.053
		c0.016,0.882,0.039,2.125,0.041,2.296c-0.167,0.083-0.994,0.488-0.994,0.488l-0.052,0.87l1.813,1.774l1.566-0.775
		c0,0,0.094-0.174,0.104-0.191c0.014-0.022,0.221-0.356,0.221-0.356s0.124-0.776,0.23-1.453l0.222,0.201
		c0.015,0.88,0.038,2.106,0.041,2.275c-0.167,0.083-0.994,0.49-0.994,0.49l-0.052,0.869l1.814,1.774l1.566-0.775
		c0,0,0.094-0.174,0.103-0.191c0.014-0.022,0.222-0.356,0.222-0.356s0.12-0.762,0.227-1.435l1.199,1.085
		c0.188,0.171,0.472,0.203,0.697,0.084l7.264-3.836c0.199-0.105,0.317-0.306,0.316-0.53l-0.002-0.317l1.158,0.924L-325.708,382.636
		L-325.708,382.636z"/>
	<g>
		<g>
			
				<linearGradient id="SVGID_1_" gradientUnits="userSpaceOnUse" x1="-475.8716" y1="364.9785" x2="-473.4878" y2="364.9785" gradientTransform="matrix(0.9988 -0.05 -0.05 -0.9988 164.2007 721.728)">
				<stop  offset="0" style="stop-color:#FFFFE1"/>
				<stop  offset="1" style="stop-color:#FFB800"/>
			</linearGradient>
			<path fill="url(#SVGID_1_)" d="M-329.372,380.515l1.589,1.305l0.837-0.51l-1.606-1.286L-329.372,380.515L-329.372,380.515z"/>
			
				<linearGradient id="SVGID_2_" gradientUnits="userSpaceOnUse" x1="-489.793" y1="399.5811" x2="-487.707" y2="399.5811" gradientTransform="matrix(1.0736 -0.0537 -0.0541 -1.082 217.2346 785.7333)">
				<stop  offset="0" style="stop-color:#FFFFE1"/>
				<stop  offset="1" style="stop-color:#FFB800"/>
			</linearGradient>
			<path fill="url(#SVGID_2_)" d="M-329.894,380.605l-0.119-0.295l-0.344-3.281l2.259,1.794l-0.051,2.753l0.297,0.659
				L-329.894,380.605L-329.894,380.605z"/>
			<path fill="#FFFFFF" d="M-331.423,377.457l2.252,1.798l1.088-0.43l-2.277-1.77L-331.423,377.457L-331.423,377.457z"/>
			
				<linearGradient id="SVGID_3_" gradientUnits="userSpaceOnUse" x1="-452.4556" y1="375.9707" x2="-450.2251" y2="375.9707" gradientTransform="matrix(1 0 0 -1 123.2847 756.5039)">
				<stop  offset="0" style="stop-color:#FFAE00"/>
				<stop  offset="1" style="stop-color:#4C1C00"/>
			</linearGradient>
			<path fill="url(#SVGID_3_)" d="M-329.171,379.254l1.071-0.423l0.206,2.627l0.123,0.303l0.826-0.502l0.004,0.361l-0.913,0.615
				l-0.365-0.642l-0.237-2.235l-0.714,0.287L-329.171,379.254L-329.171,379.254z"/>
			
				<linearGradient id="SVGID_4_" gradientUnits="userSpaceOnUse" x1="-454.707" y1="376.8179" x2="-450.2241" y2="376.8179" gradientTransform="matrix(1 0 0 -1 123.2847 756.5039)">
				<stop  offset="0" style="stop-color:#FFAE00"/>
				<stop  offset="1" style="stop-color:#4C1C00"/>
			</linearGradient>
			<path fill="url(#SVGID_4_)" d="M-330.317,376.575l1.816,1.351l0.843,0.652l0.037,0.554c0,0,0.07,0.891,0.088,1.126
				c0.154,0.124,0.588,0.47,0.588,0.47l0.459,0.357l0.002,0.774l-1.392,0.939l-2.395-1.914l-0.187-0.464c0,0-0.153-1.455-0.186-1.76
				c-0.228-0.183-1.686-1.346-1.686-1.346l1.485-0.562l0.525-0.179V376.575z M-326.945,381.259l-0.036,0.021l-0.989-0.792
				l-0.13-1.654v-0.003l0.016-0.006l-0.697-0.541l-1.577-1.253l0.003,0.027l-0.005-0.003l-1.063,0.403l1.211,0.966l0.199,1.886
				l0.119,0.295l2.041,1.63l0.913-0.616L-326.945,381.259L-326.945,381.259z"/>
		</g>
		<g>
			
				<linearGradient id="SVGID_5_" gradientUnits="userSpaceOnUse" x1="-479.4126" y1="367.9224" x2="-477.0288" y2="367.9224" gradientTransform="matrix(0.9988 -0.05 -0.05 -0.9988 164.2007 721.728)">
				<stop  offset="0" style="stop-color:#FFFFE1"/>
				<stop  offset="1" style="stop-color:#FFB800"/>
			</linearGradient>
			<path fill="url(#SVGID_5_)" d="M-333.056,377.751l1.59,1.305l0.837-0.509l-1.606-1.287L-333.056,377.751L-333.056,377.751z"/>
			
				<linearGradient id="SVGID_6_" gradientUnits="userSpaceOnUse" x1="-493.0879" y1="402.2974" x2="-491.0034" y2="402.2974" gradientTransform="matrix(1.0736 -0.0537 -0.0541 -1.082 217.2346 785.7333)">
				<stop  offset="0" style="stop-color:#FFFFE1"/>
				<stop  offset="1" style="stop-color:#FFB800"/>
			</linearGradient>
			<path fill="url(#SVGID_6_)" d="M-333.578,377.842l-0.119-0.294l-0.345-3.28l2.259,1.793l-0.051,2.752l0.295,0.661
				L-333.578,377.842z"/>
			<path fill="#FFFFFF" d="M-335.107,374.694l2.252,1.797l1.086-0.428l-2.275-1.772L-335.107,374.694L-335.107,374.694z"/>
			
				<linearGradient id="SVGID_7_" gradientUnits="userSpaceOnUse" x1="-456.1401" y1="378.7329" x2="-453.9092" y2="378.7329" gradientTransform="matrix(1 0 0 -1 123.2847 756.5039)">
				<stop  offset="0" style="stop-color:#FFAE00"/>
				<stop  offset="1" style="stop-color:#4C1C00"/>
			</linearGradient>
			<path fill="url(#SVGID_7_)" d="M-332.854,376.491l1.071-0.422l0.206,2.626l0.123,0.304l0.826-0.503l0.004,0.362l-0.914,0.616
				l-0.364-0.643l-0.237-2.235l-0.714,0.287L-332.854,376.491L-332.854,376.491z"/>
			
				<linearGradient id="SVGID_8_" gradientUnits="userSpaceOnUse" x1="-458.3921" y1="379.5806" x2="-453.9089" y2="379.5806" gradientTransform="matrix(1 0 0 -1 123.2847 756.5039)">
				<stop  offset="0" style="stop-color:#FFAE00"/>
				<stop  offset="1" style="stop-color:#4C1C00"/>
			</linearGradient>
			<path fill="url(#SVGID_8_)" d="M-334.001,373.811l1.815,1.352l0.843,0.652l0.038,0.553c0,0,0.07,0.891,0.088,1.125
				c0.154,0.125,0.587,0.472,0.587,0.472l0.458,0.355l0.003,0.776l-1.393,0.938l-2.393-1.913l-0.188-0.464
				c0,0-0.152-1.456-0.185-1.763c-0.229-0.181-1.687-1.345-1.687-1.345l1.486-0.562L-334.001,373.811L-334.001,373.811z
				 M-330.629,378.497l-0.036,0.021l-0.989-0.792l-0.13-1.653v-0.004l0.016-0.005l-0.696-0.542l-1.578-1.253l0.003,0.028
				l-0.004-0.004l-1.064,0.403l1.211,0.967l0.198,1.887l0.119,0.294l2.04,1.631l0.914-0.616L-330.629,378.497z"/>
		</g>
		<g>
			
				<linearGradient id="SVGID_9_" gradientUnits="userSpaceOnUse" x1="-482.8701" y1="370.8076" x2="-480.4868" y2="370.8076" gradientTransform="matrix(0.9988 -0.05 -0.05 -0.9988 164.2007 721.728)">
				<stop  offset="0" style="stop-color:#FFFFE1"/>
				<stop  offset="1" style="stop-color:#FFB800"/>
			</linearGradient>
			<path fill="url(#SVGID_9_)" d="M-336.653,375.042l1.588,1.306l0.838-0.51l-1.606-1.286L-336.653,375.042L-336.653,375.042z"/>
			
				<linearGradient id="SVGID_10_" gradientUnits="userSpaceOnUse" x1="-496.3057" y1="404.9614" x2="-494.2197" y2="404.9614" gradientTransform="matrix(1.0736 -0.0537 -0.0541 -1.082 217.2346 785.7333)">
				<stop  offset="0" style="stop-color:#FFFFE1"/>
				<stop  offset="1" style="stop-color:#FFB800"/>
			</linearGradient>
			<path fill="url(#SVGID_10_)" d="M-337.177,375.132l-0.119-0.294l-0.345-3.281l2.26,1.794l-0.051,2.752l0.296,0.66
				L-337.177,375.132z"/>
			<path fill="#FFFFFF" d="M-338.705,371.984l2.251,1.796l1.087-0.428l-2.275-1.771L-338.705,371.984L-338.705,371.984z"/>
			
				<linearGradient id="SVGID_11_" gradientUnits="userSpaceOnUse" x1="-459.7378" y1="381.4424" x2="-457.5068" y2="381.4424" gradientTransform="matrix(1 0 0 -1 123.2847 756.5039)">
				<stop  offset="0" style="stop-color:#FFAE00"/>
				<stop  offset="1" style="stop-color:#4C1C00"/>
			</linearGradient>
			<path fill="url(#SVGID_11_)" d="M-336.453,373.781l1.072-0.422l0.206,2.626l0.123,0.304l0.826-0.503l0.005,0.362l-0.913,0.616
				l-0.366-0.642l-0.236-2.235l-0.715,0.286L-336.453,373.781L-336.453,373.781z"/>
			
				<linearGradient id="SVGID_12_" gradientUnits="userSpaceOnUse" x1="-461.9897" y1="382.29" x2="-457.5069" y2="382.29" gradientTransform="matrix(1 0 0 -1 123.2847 756.5039)">
				<stop  offset="0" style="stop-color:#FFAE00"/>
				<stop  offset="1" style="stop-color:#4C1C00"/>
			</linearGradient>
			<path fill="url(#SVGID_12_)" d="M-337.599,371.102l1.816,1.351l0.843,0.652l0.038,0.553c0,0,0.069,0.891,0.087,1.126
				c0.155,0.124,0.588,0.471,0.588,0.471l0.458,0.356l0.003,0.775l-1.393,0.939l-2.395-1.914l-0.187-0.464
				c0,0-0.153-1.456-0.184-1.761c-0.23-0.182-1.687-1.345-1.687-1.345l1.486-0.563L-337.599,371.102L-337.599,371.102z
				 M-334.227,375.786l-0.036,0.022l-0.989-0.792l-0.129-1.653v-0.004l0.016-0.006l-0.696-0.542l-1.579-1.253l0.003,0.029
				l-0.005-0.004l-1.063,0.402l1.211,0.966l0.198,1.888l0.119,0.294l2.042,1.632l0.913-0.617L-334.227,375.786L-334.227,375.786z"/>
		</g>
	</g>
	<g>
		<path fill="#FFFFFF" d="M-346.296,373.463c0,0.278,0.01,3.858,0.01,4.066c0.153,0.141,9.137,8.272,9.384,8.497
			c0.293-0.161,7.02-3.702,7.265-3.835c0-0.28-0.017-3.857-0.017-4.066c-0.155-0.141-9.639-7.23-9.886-7.455
			C-339.833,370.832-346.053,373.329-346.296,373.463L-346.296,373.463z"/>
		
			<linearGradient id="SVGID_13_" gradientUnits="userSpaceOnUse" x1="-479.3638" y1="392.0825" x2="-452.7085" y2="371.4462" gradientTransform="matrix(1 0 0 -1 123.2847 756.5039)">
			<stop  offset="0" style="stop-color:#FFFFFF"/>
			<stop  offset="1" style="stop-color:#36364C"/>
		</linearGradient>
		<path fill="url(#SVGID_13_)" d="M-339.141,370.215c0.211,0.178,3.46,2.616,5.832,4.397c3.342,2.509,3.988,2.995,4.062,3.063
			c0.126,0.114,0.198,0.278,0.199,0.449l0.017,4.066c0.001,0.225-0.117,0.426-0.315,0.531l-7.265,3.835
			c-0.225,0.119-0.508,0.086-0.697-0.084l-9.384-8.497c-0.126-0.114-0.196-0.276-0.197-0.447l-0.01-4.066
			c-0.001-0.221,0.119-0.424,0.313-0.531c0.127-0.07,0.832-0.36,3.189-1.321c1.505-0.613,3.378-1.377,3.576-1.476l-0.008,0.004
			C-339.614,370.023-339.33,370.055-339.141,370.215L-339.141,370.215z M-346.296,373.463c0,0.022,0.01,3.601,0.01,4.066
			c0.153,0.141,9.137,8.272,9.384,8.497c0.293-0.161,7.02-3.702,7.265-3.835c0-0.28-0.017-3.857-0.017-4.066
			c-0.155-0.141-9.639-7.23-9.886-7.455C-339.833,370.832-346.053,373.329-346.296,373.463L-346.296,373.463z"/>
		
			<linearGradient id="SVGID_14_" gradientUnits="userSpaceOnUse" x1="-453.481" y1="375.6323" x2="-461.0629" y2="372.7133" gradientTransform="matrix(1 0 0 -1 123.2847 756.5039)">
			<stop  offset="0" style="stop-color:#FFFFFF"/>
			<stop  offset="1" style="stop-color:#4B4B73"/>
		</linearGradient>
		<path fill="url(#SVGID_14_)" d="M-336.577,382.633l-0.005,2.989l6.694-3.48v-3.681l-2.076,1.055l-0.003,1.266l-2.218,1.172
			l0.002-1.308l-2.026,1.03c0,0-0.234,0.167-0.304,0.45C-336.582,382.41-336.577,382.633-336.577,382.633L-336.577,382.633z"/>
		
			<linearGradient id="SVGID_15_" gradientUnits="userSpaceOnUse" x1="-461.2881" y1="384.0005" x2="-460.8417" y2="370.8313" gradientTransform="matrix(1 0 0 -1 123.2847 756.5039)">
			<stop  offset="0" style="stop-color:#FFFFFF"/>
			<stop  offset="1" style="stop-color:#4B4B73"/>
		</linearGradient>
		<path fill="url(#SVGID_15_)" d="M-339.541,370.873l9.652,7.311l-2.131,1.141c0,0-1.138-0.853-1.282-0.955
			c-0.144-0.102-0.891-0.786-1.964-0.218c-0.846,0.49-0.164,1.201-0.164,1.201l1.2,1.063l-1.982,1.004c0,0-0.324,0.108-0.53,0.089
			c-0.208-0.019-0.461-0.228-0.461-0.228l-8.69-7.752L-339.541,370.873z"/>
		
			<linearGradient id="SVGID_16_" gradientUnits="userSpaceOnUse" x1="-456.3906" y1="375.187" x2="-457.4797" y2="378.4456" gradientTransform="matrix(1 0 0 -1 123.2847 756.5039)">
			<stop  offset="0" style="stop-color:#FFFFFF"/>
			<stop  offset="0.1023" style="stop-color:#DCDCE4"/>
			<stop  offset="0.2513" style="stop-color:#B0B0C2"/>
			<stop  offset="0.4021" style="stop-color:#8C8CA5"/>
			<stop  offset="0.5524" style="stop-color:#6F6F8F"/>
			<stop  offset="0.7024" style="stop-color:#5B5B80"/>
			<stop  offset="0.8517" style="stop-color:#4F4F76"/>
			<stop  offset="1" style="stop-color:#4B4B73"/>
		</linearGradient>
		<path fill="url(#SVGID_16_)" d="M-335.113,378.413L-335.113,378.413c-0.165,0.095-0.255,0.198-0.271,0.307
			c-0.002,0.013-0.003,0.025-0.003,0.04c0,0.132,0.087,0.281,0.169,0.375c0.021,0.019,1.364,1.199,1.364,1.199
			s0.005,0.753,0.007,1.073c0.328-0.173,1.456-0.769,1.584-0.837c0-0.145,0.001-0.924,0.002-1.047
			c-0.111-0.083-1.233-0.918-1.233-0.918c-0.005-0.006-0.065-0.051-0.065-0.051C-333.819,378.365-334.36,377.974-335.113,378.413
			L-335.113,378.413z"/>
		
			<linearGradient id="SVGID_17_" gradientUnits="userSpaceOnUse" x1="-468.5615" y1="382.2754" x2="-458.8092" y2="368.0627" gradientTransform="matrix(1 0 0 -1 123.2847 756.5039)">
			<stop  offset="0" style="stop-color:#FFFFFF"/>
			<stop  offset="1" style="stop-color:#4B4B73"/>
		</linearGradient>
		<path fill="url(#SVGID_17_)" d="M-336.994,382.53l0.006,2.988l-9.105-8.205v-3.582l8.745,7.843c0,0,0.227,0.165,0.293,0.449
			C-336.989,382.307-336.994,382.53-336.994,382.53L-336.994,382.53z"/>
		
			<linearGradient id="SVGID_18_" gradientUnits="userSpaceOnUse" x1="-458.1509" y1="386.4619" x2="-458.1509" y2="372.762" gradientTransform="matrix(1 0 0 -1 123.2847 756.5039)">
			<stop  offset="0" style="stop-color:#FFFFFF"/>
			<stop  offset="1" style="stop-color:#4B4B73"/>
		</linearGradient>
		<path fill="url(#SVGID_18_)" d="M-338.003,375.743c2.469-1.664-1.617-3.938-1.538-4.646l9.349,7.115l-1.773,0.894l-1.336-1.009
			c0,0-0.97-0.736-2.1-0.137c-1.119,0.627-0.246,1.555-0.246,1.555l1.063,0.9l-2.035,0.984
			C-336.619,381.4-340.646,377.522-338.003,375.743L-338.003,375.743z"/>
	</g>
	<g>
		<g>
			
				<linearGradient id="SVGID_19_" gradientUnits="userSpaceOnUse" x1="-465.7256" y1="371.9219" x2="-460.7202" y2="371.9219" gradientTransform="matrix(1 0 0 -1 123.2847 756.5039)">
				<stop  offset="0" style="stop-color:#FFAE00"/>
				<stop  offset="1" style="stop-color:#4C1C00"/>
			</linearGradient>
			<path fill="url(#SVGID_19_)" d="M-339.792,381.02l2.356,2.16l-0.035,0.824c0,0-0.855,0.424-0.888,0.439
				c-0.06,0.382-0.377,2.38-0.377,2.38s-0.207,0.334-0.221,0.356c-0.009,0.017-0.104,0.191-0.104,0.191l-1.566,0.775l-1.813-1.773
				l0.053-0.87c0,0,0.826-0.408,0.993-0.49c-0.005-0.267-0.057-3.186-0.057-3.186l1.383-0.671L-339.792,381.02L-339.792,381.02z
				 M-339.871,381.563l1.973,1.809c0,0,0,0-0.014,0.344c-0.344,0.17-0.742,0.367-0.858,0.424c-0.043,0.274-0.399,2.521-0.399,2.521
				l-0.18,0.29l-0.042,0.077l-1.148,0.569l-1.436-1.405l0.024-0.4c0,0,0.744-0.367,0.864-0.425c0.022-0.033,0.148-0.216,0.148-0.216
				l-0.054-3.044L-339.871,381.563L-339.871,381.563z"/>
			
				<linearGradient id="SVGID_20_" gradientUnits="userSpaceOnUse" x1="-449.519" y1="382.7412" x2="-444.605" y2="382.7412" gradientTransform="matrix(0.9993 0.037 0.037 -0.9993 94.0761 783.6564)">
				<stop  offset="0" style="stop-color:#FFAE00"/>
				<stop  offset="1" style="stop-color:#4C1C00"/>
			</linearGradient>
			<path fill="url(#SVGID_20_)" d="M-340.993,382.107l0.054,3.044c0,0-0.126,0.183-0.148,0.216c-0.12,0.058-0.864,0.425-0.864,0.425
				l-0.024,0.4l1.436,1.405l1.148-0.569l0.042-0.077l0.18-0.29c0,0,0.356-2.247,0.399-2.521c0.117-0.057,0.516-0.254,0.858-0.424
				c0.014-0.344,0.014-0.344,0.014-0.344l-1.973-1.809L-340.993,382.107z"/>
			<path fill="#FFFFFF" d="M-340.993,382.107l1.949,1.832l1.146-0.567l-1.973-1.809L-340.993,382.107z"/>
			
				<linearGradient id="SVGID_21_" gradientUnits="userSpaceOnUse" x1="-449.6353" y1="382.8662" x2="-447.6196" y2="382.8662" gradientTransform="matrix(0.9993 0.037 0.037 -0.9993 94.0761 783.6564)">
				<stop  offset="0" style="stop-color:#FFFFE1"/>
				<stop  offset="1" style="stop-color:#FFB800"/>
			</linearGradient>
			<path fill="url(#SVGID_21_)" d="M-341.094,385.376l0.155-0.225l-0.054-3.044l1.949,1.832l-0.415,2.614l-0.15,0.242
				L-341.094,385.376L-341.094,385.376z"/>
			
				<linearGradient id="SVGID_22_" gradientUnits="userSpaceOnUse" x1="-450.4629" y1="380.998" x2="-448.0786" y2="380.998" gradientTransform="matrix(0.9993 0.037 0.037 -0.9993 94.0761 783.6564)">
				<stop  offset="0" style="stop-color:#FFFFE1"/>
				<stop  offset="1" style="stop-color:#FFB800"/>
			</linearGradient>
			<path fill="url(#SVGID_22_)" d="M-341.958,385.792l1.47,1.438l0.879-0.435l-1.488-1.421L-341.958,385.792L-341.958,385.792z"/>
			
				<linearGradient id="SVGID_23_" gradientUnits="userSpaceOnUse" x1="-468.877" y1="374.7559" x2="-463.8716" y2="374.7559" gradientTransform="matrix(1 0 0 -1 123.2847 756.5039)">
				<stop  offset="0" style="stop-color:#FFAE00"/>
				<stop  offset="1" style="stop-color:#4C1C00"/>
			</linearGradient>
			<path fill="url(#SVGID_23_)" d="M-342.943,378.186l2.356,2.16l-0.036,0.823c0,0-0.855,0.424-0.888,0.439
				c-0.061,0.382-0.377,2.38-0.377,2.38s-0.208,0.334-0.221,0.356c-0.01,0.018-0.104,0.191-0.104,0.191l-1.567,0.775l-1.813-1.773
				l0.052-0.869c0,0,0.827-0.408,0.994-0.49c-0.006-0.266-0.058-3.186-0.058-3.186l1.383-0.671L-342.943,378.186L-342.943,378.186z
				 M-343.023,378.729l1.974,1.808c0,0,0,0-0.015,0.345c-0.342,0.169-0.742,0.367-0.858,0.425c-0.043,0.272-0.399,2.52-0.399,2.52
				l-0.181,0.29l-0.042,0.077l-1.148,0.567l-1.436-1.404l0.025-0.4c0,0,0.744-0.367,0.862-0.426c0.023-0.032,0.15-0.215,0.15-0.215
				l-0.055-3.043L-343.023,378.729L-343.023,378.729z"/>
			
				<linearGradient id="SVGID_24_" gradientUnits="userSpaceOnUse" x1="-452.7734" y1="385.457" x2="-447.8594" y2="385.457" gradientTransform="matrix(0.9993 0.037 0.037 -0.9993 94.0761 783.6564)">
				<stop  offset="0" style="stop-color:#FFAE00"/>
				<stop  offset="1" style="stop-color:#4C1C00"/>
			</linearGradient>
			<path fill="url(#SVGID_24_)" d="M-344.145,379.273l0.055,3.043c0,0-0.126,0.183-0.149,0.215c-0.12,0.059-0.863,0.426-0.863,0.426
				l-0.024,0.4l1.435,1.404l1.148-0.567l0.042-0.077l0.181-0.29c0,0,0.356-2.248,0.4-2.52c0.116-0.058,0.515-0.255,0.857-0.425
				c0.015-0.345,0.015-0.345,0.015-0.345l-1.974-1.808L-344.145,379.273L-344.145,379.273z"/>
			<path fill="#FFFFFF" d="M-344.145,379.273l1.948,1.831l1.148-0.567l-1.974-1.808L-344.145,379.273L-344.145,379.273z"/>
			
				<linearGradient id="SVGID_25_" gradientUnits="userSpaceOnUse" x1="-452.8896" y1="385.5811" x2="-450.875" y2="385.5811" gradientTransform="matrix(0.9993 0.037 0.037 -0.9993 94.0761 783.6564)">
				<stop  offset="0" style="stop-color:#FFFFE1"/>
				<stop  offset="1" style="stop-color:#FFB800"/>
			</linearGradient>
			<path fill="url(#SVGID_25_)" d="M-344.247,382.542l0.156-0.225l-0.055-3.043l1.948,1.832l-0.414,2.614l-0.15,0.242
				L-344.247,382.542L-344.247,382.542z"/>
			
				<linearGradient id="SVGID_26_" gradientUnits="userSpaceOnUse" x1="-453.7173" y1="383.7139" x2="-451.333" y2="383.7139" gradientTransform="matrix(0.9993 0.037 0.037 -0.9993 94.0761 783.6564)">
				<stop  offset="0" style="stop-color:#FFFFE1"/>
				<stop  offset="1" style="stop-color:#FFB800"/>
			</linearGradient>
			<path fill="url(#SVGID_26_)" d="M-345.109,382.958l1.469,1.438l0.879-0.435l-1.488-1.421L-345.109,382.958L-345.109,382.958z"/>
			
				<linearGradient id="SVGID_27_" gradientUnits="userSpaceOnUse" x1="-471.8496" y1="377.5635" x2="-466.8442" y2="377.5635" gradientTransform="matrix(1 0 0 -1 123.2847 756.5039)">
				<stop  offset="0" style="stop-color:#FFAE00"/>
				<stop  offset="1" style="stop-color:#4C1C00"/>
			</linearGradient>
			<path fill="url(#SVGID_27_)" d="M-345.916,375.377l2.356,2.16l-0.035,0.824c0,0-0.855,0.423-0.889,0.438
				c-0.06,0.382-0.376,2.38-0.376,2.38s-0.207,0.333-0.222,0.356c-0.009,0.017-0.103,0.191-0.103,0.191l-1.566,0.775l-1.814-1.774
				l0.052-0.869c0,0,0.827-0.407,0.994-0.49c-0.004-0.267-0.057-3.186-0.057-3.186l1.383-0.671L-345.916,375.377L-345.916,375.377z
				 M-345.995,375.92l1.974,1.809c0,0,0,0-0.015,0.345c-0.343,0.17-0.742,0.367-0.858,0.423c-0.043,0.274-0.399,2.521-0.399,2.521
				l-0.181,0.29l-0.042,0.077l-1.148,0.568l-1.437-1.404l0.025-0.4c0,0,0.744-0.367,0.863-0.425
				c0.023-0.033,0.149-0.215,0.149-0.215l-0.055-3.043L-345.995,375.92z"/>
		</g>
		
			<linearGradient id="SVGID_28_" gradientUnits="userSpaceOnUse" x1="-455.8481" y1="388.1533" x2="-450.9335" y2="388.1533" gradientTransform="matrix(0.9993 0.037 0.037 -0.9993 94.0761 783.6564)">
			<stop  offset="0" style="stop-color:#FFAE00"/>
			<stop  offset="1" style="stop-color:#4C1C00"/>
		</linearGradient>
		<path fill="url(#SVGID_28_)" d="M-347.118,376.465l0.055,3.043c0,0-0.126,0.183-0.148,0.215c-0.12,0.058-0.864,0.425-0.864,0.425
			l-0.025,0.4l1.437,1.404l1.148-0.568l0.042-0.077l0.181-0.29c0,0,0.356-2.248,0.4-2.521c0.116-0.057,0.514-0.253,0.857-0.423
			c0.015-0.345,0.015-0.345,0.015-0.345l-1.974-1.809L-347.118,376.465z"/>
		<path fill="#FFFFFF" d="M-347.118,376.465l1.949,1.83l1.147-0.566l-1.974-1.809L-347.118,376.465z"/>
		
			<linearGradient id="SVGID_29_" gradientUnits="userSpaceOnUse" x1="-455.9644" y1="388.2778" x2="-453.9492" y2="388.2778" gradientTransform="matrix(0.9993 0.037 0.037 -0.9993 94.0761 783.6564)">
			<stop  offset="0" style="stop-color:#FFFFE1"/>
			<stop  offset="1" style="stop-color:#FFB800"/>
		</linearGradient>
		<path fill="url(#SVGID_29_)" d="M-347.219,379.734l0.156-0.225l-0.055-3.043l1.949,1.83l-0.413,2.615l-0.151,0.242
			L-347.219,379.734L-347.219,379.734z"/>
		
			<linearGradient id="SVGID_30_" gradientUnits="userSpaceOnUse" x1="-456.7915" y1="386.4102" x2="-454.4077" y2="386.4102" gradientTransform="matrix(0.9993 0.037 0.037 -0.9993 94.0761 783.6564)">
			<stop  offset="0" style="stop-color:#FFFFE1"/>
			<stop  offset="1" style="stop-color:#FFB800"/>
		</linearGradient>
		<path fill="url(#SVGID_30_)" d="M-348.082,380.149l1.469,1.438l0.879-0.435l-1.488-1.42L-348.082,380.149L-348.082,380.149z"/>
	</g>
</g>
</svg>
