<?xml version="1.0" encoding="utf-8"?>
<!-- Generator: Adobe Illustrator 13.0.1, SVG Export Plug-In . SVG Version: 6.00 Build 14948)  -->
<!DOCTYPE svg PUBLIC "-//W3C//DTD SVG 1.0//EN" "http://www.w3.org/TR/2001/REC-SVG-20010904/DTD/svg10.dtd">
<svg version="1.0" id="windows" xmlns="http://www.w3.org/2000/svg" xmlns:xlink="http://www.w3.org/1999/xlink" x="0px" y="0px"
	 width="27px" height="24.23px" viewBox="-2 -2 27 24.23" enable-background="new -2 -2 27 24.23" xml:space="preserve">
<g id="g3350">
	
		<linearGradient id="path2458_1_" gradientUnits="userSpaceOnUse" x1="1859.0166" y1="-4123.8369" x2="1885.9814" y2="-4126.1538" gradientTransform="matrix(0.2801 0 0 -0.2801 -517.6046 -1150.8597)">
		<stop  offset="0" style="stop-color:#FFA400"/>
		<stop  offset="1" style="stop-color:#FF4400"/>
	</linearGradient>
	<path id="path2458" fill="url(#path2458_1_)" d="M11.853,9.554c0,0-1.947-1.356-4.308-1.417S3.001,8.844,3.001,8.844l2.36-7.729
		c0,0,1.594-0.998,4.19-0.944c2.833,0.06,4.484,1.477,4.484,1.477L11.853,9.554z"/>
	
		<linearGradient id="path2467_1_" gradientUnits="userSpaceOnUse" x1="1928.5469" y1="-4132.293" x2="1848.1749" y2="-4120.6836" gradientTransform="matrix(0.2801 0 0 -0.2801 -517.6046 -1150.8597)">
		<stop  offset="0" style="stop-color:#FFFFFF"/>
		<stop  offset="0.3933" style="stop-color:#FF6D00"/>
		<stop  offset="1" style="stop-color:#CF0000"/>
	</linearGradient>
	<path id="path2467" fill="url(#path2467_1_)" d="M11.34,8.925c0,0-1.733-1.248-3.834-1.302c-2.101-0.057-4.044,0.65-4.044,0.65
		l2.101-7.112c0,0,1.419-0.918,3.729-0.869c2.521,0.055,3.991,1.356,3.991,1.356L11.34,8.925z"/>
	
		<linearGradient id="path2474_1_" gradientUnits="userSpaceOnUse" x1="1858.3828" y1="-4123.7813" x2="1886.2107" y2="-4126.1724" gradientTransform="matrix(0.2801 0 0 -0.2801 -517.6046 -1150.8597)">
		<stop  offset="0" style="stop-color:#F00000"/>
		<stop  offset="0.6517" style="stop-color:#7C0000"/>
	</linearGradient>
	<path id="path2474" fill="url(#path2474_1_)" d="M5.272,0.972C5.237,0.994,5.212,1.027,5.2,1.066L2.84,8.795
		C2.821,8.856,2.838,8.923,2.884,8.967C2.93,9.01,2.997,9.025,3.057,9.004C3.079,8.997,5.24,8.248,7.541,8.306
		c2.279,0.059,4.196,1.371,4.215,1.386c0.045,0.031,0.102,0.039,0.154,0.021c0.051-0.02,0.09-0.063,0.105-0.113l2.182-7.907
		c0.019-0.063-0.002-0.129-0.053-0.173c-0.068-0.061-1.73-1.457-4.59-1.517C6.938-0.052,5.338,0.93,5.272,0.972z M9.548,0.34
		c2.387,0.05,3.932,1.097,4.295,1.37c-0.057,0.205-1.979,7.166-2.092,7.578c-0.544-0.338-2.208-1.27-4.202-1.319
		C5.667,7.921,3.936,8.38,3.257,8.586c0.172-0.563,2.21-7.236,2.247-7.357C5.761,1.083,7.256,0.292,9.548,0.34z"/>
</g>
<g id="g2575">
	
		<linearGradient id="path2481_1_" gradientUnits="userSpaceOnUse" x1="1848.9063" y1="-4157.334" x2="1875.8716" y2="-4159.6514" gradientTransform="matrix(0.2801 0 0 -0.2801 -517.6046 -1150.8597)">
		<stop  offset="0" style="stop-color:#5DBBFF"/>
		<stop  offset="1" style="stop-color:#0035ED"/>
	</linearGradient>
	<path id="path2481" fill="url(#path2481_1_)" d="M9.021,18.936c0,0-1.948-1.356-4.308-1.417c-2.361-0.061-4.543,0.708-4.543,0.708
		l2.36-7.729c0,0,1.594-0.998,4.189-0.943c2.833,0.059,4.485,1.477,4.485,1.477L9.021,18.936z"/>
	
		<linearGradient id="path2488_1_" gradientUnits="userSpaceOnUse" x1="1848.2725" y1="-4157.2793" x2="1876.0985" y2="-4159.6704" gradientTransform="matrix(0.2801 0 0 -0.2801 -517.6046 -1150.8597)">
		<stop  offset="0" style="stop-color:#214CFF"/>
		<stop  offset="1" style="stop-color:#00008D"/>
	</linearGradient>
	<path id="path2488" fill="url(#path2488_1_)" d="M2.439,10.354c-0.035,0.021-0.06,0.056-0.072,0.095l-2.36,7.729
		c-0.019,0.063-0.001,0.128,0.044,0.171c0.046,0.045,0.113,0.062,0.173,0.039c0.021-0.009,2.183-0.759,4.483-0.699
		c2.28,0.059,4.196,1.373,4.215,1.388c0.045,0.029,0.103,0.037,0.154,0.021c0.052-0.019,0.091-0.063,0.105-0.114l2.183-7.906
		c0.018-0.063-0.003-0.131-0.053-0.174C11.242,10.842,9.58,9.445,6.72,9.385C4.106,9.331,2.506,10.313,2.439,10.354z M6.715,9.723
		c2.388,0.05,3.932,1.097,4.295,1.369c-0.057,0.205-1.979,7.166-2.092,7.578C8.374,18.332,6.71,17.4,4.717,17.351
		c-1.883-0.047-3.613,0.412-4.292,0.618c0.172-0.563,2.209-7.236,2.247-7.357C2.928,10.465,4.424,9.675,6.715,9.723z"/>
	
		<linearGradient id="path2533_1_" gradientUnits="userSpaceOnUse" x1="1916.8193" y1="-4165.6104" x2="1862.1836" y2="-4157.73" gradientTransform="matrix(0.2801 0 0 -0.2801 -517.6046 -1150.8597)">
		<stop  offset="0.2528" style="stop-color:#5DBBFF"/>
		<stop  offset="1" style="stop-color:#0035ED"/>
	</linearGradient>
	<path id="path2533" fill="url(#path2533_1_)" d="M8.551,18.311c0,0-1.744-1.244-3.858-1.299c-2.115-0.056-4.07,0.647-4.07,0.647
		l2.115-7.083c0,0,1.427-0.914,3.753-0.865c2.537,0.055,4.017,1.353,4.017,1.353L8.551,18.311z"/>
</g>
<g id="g2570">
	
		<linearGradient id="path2501_1_" gradientUnits="userSpaceOnUse" x1="1893.6592" y1="-4133.4502" x2="1920.6215" y2="-4135.7671" gradientTransform="matrix(0.2801 0 0 -0.2801 -517.6046 -1150.8597)">
		<stop  offset="0" style="stop-color:#009000"/>
		<stop  offset="0.1696" style="stop-color:#0C9700"/>
		<stop  offset="0.4756" style="stop-color:#2CA900"/>
		<stop  offset="0.8804" style="stop-color:#5FC600"/>
		<stop  offset="1" style="stop-color:#6FCF00"/>
	</linearGradient>
	<path id="path2501" fill="url(#path2501_1_)" d="M14.979,2.532c0,0,1.947,1.355,4.31,1.416c2.36,0.06,4.544-0.708,4.544-0.708
		l-1.947,7.847c0,0-2.007,0.88-4.603,0.826c-2.832-0.06-4.484-1.476-4.484-1.476L14.979,2.532z"/>
	
		<linearGradient id="path2512_1_" gradientUnits="userSpaceOnUse" x1="1893.0166" y1="-4133.3955" x2="1920.8486" y2="-4135.7871" gradientTransform="matrix(0.2801 0 0 -0.2801 -517.6046 -1150.8597)">
		<stop  offset="0" style="stop-color:#006000"/>
		<stop  offset="0.2365" style="stop-color:#076C00"/>
		<stop  offset="0.6615" style="stop-color:#188B00"/>
		<stop  offset="1" style="stop-color:#28A900"/>
	</linearGradient>
	<path id="path2512" fill="url(#path2512_1_)" d="M14.922,2.373c-0.052,0.019-0.09,0.062-0.105,0.112l-2.184,7.907
		c-0.018,0.063,0.004,0.13,0.054,0.173c0.069,0.061,1.731,1.458,4.59,1.517c2.604,0.056,4.591-0.805,4.675-0.84
		c0.049-0.021,0.084-0.064,0.097-0.115l1.947-7.847c0.016-0.062-0.005-0.124-0.051-0.166c-0.047-0.041-0.11-0.055-0.17-0.034
		c-0.021,0.007-2.185,0.757-4.482,0.697c-2.279-0.058-4.195-1.371-4.216-1.386C15.031,2.361,14.975,2.354,14.922,2.373z
		 M15.082,2.797c0.543,0.339,2.207,1.271,4.201,1.32c1.902,0.047,3.646-0.42,4.311-0.624c-0.133,0.538-1.814,7.313-1.854,7.47
		c-0.359,0.146-2.184,0.829-4.455,0.782c-2.389-0.052-3.932-1.098-4.295-1.37C13.046,10.17,14.969,3.208,15.082,2.797z"/>
	
		<linearGradient id="path2546_1_" gradientUnits="userSpaceOnUse" x1="1921.9727" y1="-4147.7539" x2="1903.3108" y2="-4119.061" gradientTransform="matrix(0.2801 0 0 -0.2801 -517.6046 -1150.8597)">
		<stop  offset="0" style="stop-color:#009000"/>
		<stop  offset="0.1696" style="stop-color:#0C9700"/>
		<stop  offset="0.4756" style="stop-color:#2CA900"/>
		<stop  offset="0.8804" style="stop-color:#5FC600"/>
		<stop  offset="1" style="stop-color:#6FCF00"/>
	</linearGradient>
	<path id="path2546" fill="url(#path2546_1_)" d="M15.199,3.141c0,0,1.742,1.213,3.854,1.268c2.109,0.053,4.063-0.635,4.063-0.635
		l-1.742,7.02c0,0-1.794,0.787-4.115,0.739c-2.532-0.054-4.01-1.319-4.01-1.319L15.199,3.141z"/>
</g>
<g id="g2565">
	
		<linearGradient id="path2519_1_" gradientUnits="userSpaceOnUse" x1="1884.1758" y1="-4166.1045" x2="1911.1417" y2="-4168.4219" gradientTransform="matrix(0.2801 0 0 -0.2801 -517.6046 -1150.8597)">
		<stop  offset="0" style="stop-color:#FFC700"/>
		<stop  offset="1" style="stop-color:#FFFF00"/>
	</linearGradient>
	<path id="path2519" fill="url(#path2519_1_)" d="M12.324,11.677c0,0,1.947,1.357,4.308,1.417c2.361,0.061,4.544-0.708,4.544-0.708
		l-1.947,7.849c0,0-2.006,0.881-4.603,0.826c-2.833-0.061-4.485-1.477-4.485-1.477L12.324,11.677z"/>
	
		<linearGradient id="path2526_1_" gradientUnits="userSpaceOnUse" x1="1883.5391" y1="-4166.0518" x2="1911.3713" y2="-4168.4434" gradientTransform="matrix(0.2801 0 0 -0.2801 -517.6046 -1150.8597)">
		<stop  offset="0" style="stop-color:#C77700"/>
		<stop  offset="1" style="stop-color:#FF9200"/>
	</linearGradient>
	<path id="path2526" fill="url(#path2526_1_)" d="M12.267,11.519c-0.051,0.02-0.091,0.063-0.105,0.113L9.979,19.54
		c-0.018,0.063,0.003,0.131,0.053,0.174c0.07,0.06,1.731,1.456,4.592,1.517c2.603,0.054,4.59-0.805,4.674-0.84
		c0.048-0.021,0.083-0.063,0.097-0.115l1.946-7.849c0.017-0.061-0.004-0.122-0.051-0.166c-0.045-0.041-0.11-0.055-0.169-0.032
		c-0.021,0.006-2.184,0.756-4.482,0.696c-2.279-0.057-4.197-1.372-4.216-1.385C12.376,11.508,12.318,11.5,12.267,11.519z
		 M12.427,11.944c0.544,0.339,2.207,1.271,4.201,1.318c1.901,0.049,3.647-0.421,4.312-0.623c-0.135,0.538-1.813,7.313-1.854,7.471
		c-0.359,0.146-2.184,0.828-4.456,0.781c-2.387-0.052-3.932-1.097-4.294-1.37C10.391,19.317,12.313,12.356,12.427,11.944z"/>
	
		<linearGradient id="path2555_1_" gradientUnits="userSpaceOnUse" x1="1912.8887" y1="-4179.8828" x2="1892.8273" y2="-4149.0908" gradientTransform="matrix(0.2801 0 0 -0.2801 -517.6046 -1150.8597)">
		<stop  offset="0" style="stop-color:#FFC700"/>
		<stop  offset="0.6461" style="stop-color:#FFFF00"/>
		<stop  offset="1" style="stop-color:#FFFFDE"/>
	</linearGradient>
	<path id="path2555" fill="url(#path2555_1_)" d="M12.705,12.214c0,0,1.725,1.202,3.814,1.255c2.088,0.054,4.023-0.627,4.023-0.627
		l-1.727,6.949c0,0-1.775,0.778-4.074,0.731c-2.509-0.054-3.972-1.308-3.972-1.308L12.705,12.214z"/>
</g>
</svg>
